<svg id="Capa_1" enable-background="new 0 0 512 512" height="512" viewBox="0 0 512 512" width="512" xmlns="http://www.w3.org/2000/svg"><g><path d="m260.746.228c-1.538-.513-3.142 0-4.746 0s-3.208-.513-4.746 0c-59.971 19.98-100.254 77.427-100.254 140.635v10.137l30 31h75 75l30-31v-10.137c0-63.208-40.283-120.655-100.254-140.635z" fill="#ff9f22"/><path d="m361 151v-10.137c0-63.208-40.283-120.655-100.254-140.635-1.538-.513-3.142 0-4.746 0v181.772h75z" fill="#ff4a4a"/><path d="m256 443.709h-73.418l30 60c2.549 5.083 7.734 8.291 13.418 8.291h30 30c5.684 0 10.869-3.208 13.418-8.291l30-60z" fill="#0b799d"/><path d="m299.418 503.709 30-60h-73.418v68.291h30c5.684 0 10.869-3.208 13.418-8.291z" fill="#07485e"/><path d="m61 407v90c0 8.291 6.709 15 15 15h30c3.984 0 7.793-1.582 10.605-4.395l34.395-55.605 32.741-27.413-17.741-122.587c-57.891 0-105 47.109-105 105z" fill="#ff9f22"/><path d="m451 407v90c0 8.291-6.709 15-15 15h-30c-3.984 0-7.793-1.582-10.605-4.395l-34.395-55.605-32.741-27.413 17.741-122.587c57.891 0 105 47.109 105 105z" fill="#ff4a4a"/><path d="m256 151h-105v301h105 105v-301z" fill="#f0f7ff"/><path d="m256 151h105v301h-105z" fill="#c7cfe1"/><path d="m256 212c-24.814 0-45 20.186-45 45v60c0 24.814 20.186 45 45 45s45-20.186 45-45v-60c0-24.814-20.186-45-45-45z" fill="#0b799d"/><path d="m301 317v-60c0-24.814-20.186-45-45-45v150c24.814 0 45-20.186 45-45z" fill="#07485e"/><g fill="#76e2f8"><path d="m241 302v15c0 8.276 6.724 15 15 15s15-6.724 15-15v-15h-15z"/><path d="m256 242c-8.276 0-15 6.724-15 15v15h15 15v-15c0-8.276-6.724-15-15-15z"/></g><g fill="#4bb9ec"><path d="m271 317v-15h-15v30c8.276 0 15-6.724 15-15z"/><path d="m271 257c0-8.276-6.724-15-15-15v30h15z"/></g></g></svg>